<mxfile host="app.diagrams.net" modified="2024-03-06T22:27:43.845Z" agent="Mozilla/5.0 (Windows NT 10.0; Win64; x64) AppleWebKit/537.36 (KHTML, like Gecko) Chrome/121.0.0.0 Safari/537.36 OPR/107.0.0.0 (Edition std-1)" etag="imwM0N6g6jLnOMGxCQGM" version="24.0.1" type="github">
  <diagram name="Página-1" id="NpVkEjn5JEYqDDdskeJJ">
    <mxGraphModel dx="1757" dy="900" grid="1" gridSize="10" guides="1" tooltips="1" connect="1" arrows="1" fold="1" page="1" pageScale="1" pageWidth="1654" pageHeight="1000" math="0" shadow="0">
      <root>
        <mxCell id="0" />
        <mxCell id="1" parent="0" />
        <mxCell id="pYAscaqakKKFZa-uCSPu-1" value="Pagamento e faturamento" style="swimlane;html=1;childLayout=stackLayout;resizeParent=1;resizeParentMax=0;horizontal=0;startSize=20;horizontalStack=0;" parent="1" vertex="1">
          <mxGeometry x="120" y="120" width="1480" height="440" as="geometry" />
        </mxCell>
        <mxCell id="pYAscaqakKKFZa-uCSPu-2" value="Cliente" style="swimlane;html=1;startSize=20;horizontal=0;" parent="pYAscaqakKKFZa-uCSPu-1" vertex="1">
          <mxGeometry x="20" width="1460" height="160" as="geometry" />
        </mxCell>
        <mxCell id="pYAscaqakKKFZa-uCSPu-3" value="" style="edgeStyle=orthogonalEdgeStyle;rounded=0;orthogonalLoop=1;jettySize=auto;html=1;" parent="pYAscaqakKKFZa-uCSPu-2" source="pYAscaqakKKFZa-uCSPu-4" edge="1">
          <mxGeometry relative="1" as="geometry">
            <mxPoint x="120" y="60" as="targetPoint" />
          </mxGeometry>
        </mxCell>
        <mxCell id="pYAscaqakKKFZa-uCSPu-4" value="" style="ellipse;whiteSpace=wrap;html=1;fillColor=#d5e8d4;strokeColor=#82b366;" parent="pYAscaqakKKFZa-uCSPu-2" vertex="1">
          <mxGeometry x="40" y="40" width="40" height="40" as="geometry" />
        </mxCell>
        <mxCell id="pYAscaqakKKFZa-uCSPu-38" value="Marca que o prestador está na residência" style="rounded=0;whiteSpace=wrap;html=1;" parent="pYAscaqakKKFZa-uCSPu-2" vertex="1">
          <mxGeometry x="120" y="30" width="80" height="60" as="geometry" />
        </mxCell>
        <mxCell id="pYAscaqakKKFZa-uCSPu-47" value="Definição da forma de pagamento" style="rhombus;whiteSpace=wrap;html=1;fillColor=#ffe6cc;strokeColor=#d79b00;" parent="pYAscaqakKKFZa-uCSPu-2" vertex="1">
          <mxGeometry x="440" y="40" width="80" height="80" as="geometry" />
        </mxCell>
        <mxCell id="pYAscaqakKKFZa-uCSPu-77" style="edgeStyle=orthogonalEdgeStyle;rounded=0;orthogonalLoop=1;jettySize=auto;html=1;exitX=1;exitY=0.5;exitDx=0;exitDy=0;entryX=0.5;entryY=0;entryDx=0;entryDy=0;" parent="pYAscaqakKKFZa-uCSPu-2" source="pYAscaqakKKFZa-uCSPu-49" target="pYAscaqakKKFZa-uCSPu-76" edge="1">
          <mxGeometry relative="1" as="geometry" />
        </mxCell>
        <mxCell id="pYAscaqakKKFZa-uCSPu-49" value="Coloca a informação do cartão" style="rounded=0;whiteSpace=wrap;html=1;" parent="pYAscaqakKKFZa-uCSPu-2" vertex="1">
          <mxGeometry x="600" y="10" width="120" height="60" as="geometry" />
        </mxCell>
        <mxCell id="pYAscaqakKKFZa-uCSPu-48" style="edgeStyle=orthogonalEdgeStyle;rounded=0;orthogonalLoop=1;jettySize=auto;html=1;exitX=0.5;exitY=0;exitDx=0;exitDy=0;" parent="pYAscaqakKKFZa-uCSPu-2" source="pYAscaqakKKFZa-uCSPu-47" target="pYAscaqakKKFZa-uCSPu-49" edge="1">
          <mxGeometry relative="1" as="geometry">
            <mxPoint x="670" y="40" as="targetPoint" />
            <Array as="points">
              <mxPoint x="480" y="20" />
            </Array>
          </mxGeometry>
        </mxCell>
        <mxCell id="pYAscaqakKKFZa-uCSPu-50" value="Cartão" style="edgeLabel;html=1;align=center;verticalAlign=middle;resizable=0;points=[];" parent="pYAscaqakKKFZa-uCSPu-48" vertex="1" connectable="0">
          <mxGeometry x="0.1429" y="1" relative="1" as="geometry">
            <mxPoint as="offset" />
          </mxGeometry>
        </mxCell>
        <mxCell id="pYAscaqakKKFZa-uCSPu-52" value="Mostra as informações para que seja feita a transferência" style="rounded=0;whiteSpace=wrap;html=1;" parent="pYAscaqakKKFZa-uCSPu-2" vertex="1">
          <mxGeometry x="600" y="80" width="120" height="60" as="geometry" />
        </mxCell>
        <mxCell id="pYAscaqakKKFZa-uCSPu-51" style="edgeStyle=orthogonalEdgeStyle;rounded=0;orthogonalLoop=1;jettySize=auto;html=1;exitX=1;exitY=0.5;exitDx=0;exitDy=0;" parent="pYAscaqakKKFZa-uCSPu-2" source="pYAscaqakKKFZa-uCSPu-47" target="pYAscaqakKKFZa-uCSPu-52" edge="1">
          <mxGeometry relative="1" as="geometry">
            <mxPoint x="560" y="120" as="targetPoint" />
          </mxGeometry>
        </mxCell>
        <mxCell id="pYAscaqakKKFZa-uCSPu-53" value="PIX" style="edgeLabel;html=1;align=center;verticalAlign=middle;resizable=0;points=[];" parent="pYAscaqakKKFZa-uCSPu-51" vertex="1" connectable="0">
          <mxGeometry x="-0.55" y="1" relative="1" as="geometry">
            <mxPoint as="offset" />
          </mxGeometry>
        </mxCell>
        <mxCell id="pYAscaqakKKFZa-uCSPu-70" value="Mostra a mensagem de pagamento efetuado" style="rounded=0;whiteSpace=wrap;html=1;" parent="pYAscaqakKKFZa-uCSPu-2" vertex="1">
          <mxGeometry x="860" y="50" width="120" height="60" as="geometry" />
        </mxCell>
        <mxCell id="pYAscaqakKKFZa-uCSPu-72" value="" style="ellipse;whiteSpace=wrap;html=1;aspect=fixed;fillColor=#f8cecc;strokeColor=#b85450;" parent="pYAscaqakKKFZa-uCSPu-2" vertex="1">
          <mxGeometry x="1040" y="55" width="50" height="50" as="geometry" />
        </mxCell>
        <mxCell id="pYAscaqakKKFZa-uCSPu-71" style="edgeStyle=orthogonalEdgeStyle;rounded=0;orthogonalLoop=1;jettySize=auto;html=1;exitX=1;exitY=0.5;exitDx=0;exitDy=0;" parent="pYAscaqakKKFZa-uCSPu-2" source="pYAscaqakKKFZa-uCSPu-70" target="pYAscaqakKKFZa-uCSPu-72" edge="1">
          <mxGeometry relative="1" as="geometry">
            <mxPoint x="1020" y="80" as="targetPoint" />
          </mxGeometry>
        </mxCell>
        <mxCell id="pYAscaqakKKFZa-uCSPu-80" style="edgeStyle=orthogonalEdgeStyle;rounded=0;orthogonalLoop=1;jettySize=auto;html=1;exitX=0;exitY=1;exitDx=0;exitDy=0;entryX=1;entryY=1;entryDx=0;entryDy=0;" parent="pYAscaqakKKFZa-uCSPu-2" source="pYAscaqakKKFZa-uCSPu-76" target="pYAscaqakKKFZa-uCSPu-47" edge="1">
          <mxGeometry relative="1" as="geometry">
            <mxPoint x="550" y="220" as="targetPoint" />
            <Array as="points">
              <mxPoint x="740" y="125" />
              <mxPoint x="740" y="150" />
              <mxPoint x="500" y="150" />
            </Array>
          </mxGeometry>
        </mxCell>
        <mxCell id="pYAscaqakKKFZa-uCSPu-81" value="Não" style="edgeLabel;html=1;align=center;verticalAlign=middle;resizable=0;points=[];" parent="pYAscaqakKKFZa-uCSPu-80" vertex="1" connectable="0">
          <mxGeometry x="-0.0204" y="-2" relative="1" as="geometry">
            <mxPoint as="offset" />
          </mxGeometry>
        </mxCell>
        <mxCell id="pYAscaqakKKFZa-uCSPu-76" value="Pagamento&amp;nbsp; efetuado?" style="rhombus;whiteSpace=wrap;html=1;fillColor=#ffe6cc;strokeColor=#d79b00;" parent="pYAscaqakKKFZa-uCSPu-2" vertex="1">
          <mxGeometry x="760" y="80" width="60" height="60" as="geometry" />
        </mxCell>
        <mxCell id="pYAscaqakKKFZa-uCSPu-75" style="edgeStyle=orthogonalEdgeStyle;rounded=0;orthogonalLoop=1;jettySize=auto;html=1;exitX=1;exitY=0.5;exitDx=0;exitDy=0;" parent="pYAscaqakKKFZa-uCSPu-2" source="pYAscaqakKKFZa-uCSPu-52" target="pYAscaqakKKFZa-uCSPu-76" edge="1">
          <mxGeometry relative="1" as="geometry">
            <mxPoint x="760" y="110" as="targetPoint" />
          </mxGeometry>
        </mxCell>
        <mxCell id="pYAscaqakKKFZa-uCSPu-12" value="Sistema" style="swimlane;html=1;startSize=20;horizontal=0;" parent="pYAscaqakKKFZa-uCSPu-1" vertex="1">
          <mxGeometry x="20" y="160" width="1460" height="140" as="geometry" />
        </mxCell>
        <mxCell id="pYAscaqakKKFZa-uCSPu-41" value="" style="rhombus;whiteSpace=wrap;html=1;fillColor=#ffe6cc;strokeColor=#d79b00;" parent="pYAscaqakKKFZa-uCSPu-12" vertex="1">
          <mxGeometry x="220" y="20" width="80" height="80" as="geometry" />
        </mxCell>
        <mxCell id="pYAscaqakKKFZa-uCSPu-44" value="Libera a opção de pagamento" style="rounded=0;whiteSpace=wrap;html=1;" parent="pYAscaqakKKFZa-uCSPu-12" vertex="1">
          <mxGeometry x="340" y="35" width="100" height="50" as="geometry" />
        </mxCell>
        <mxCell id="pYAscaqakKKFZa-uCSPu-43" style="edgeStyle=orthogonalEdgeStyle;rounded=0;orthogonalLoop=1;jettySize=auto;html=1;exitX=1;exitY=0.5;exitDx=0;exitDy=0;" parent="pYAscaqakKKFZa-uCSPu-12" source="pYAscaqakKKFZa-uCSPu-41" target="pYAscaqakKKFZa-uCSPu-44" edge="1">
          <mxGeometry relative="1" as="geometry">
            <mxPoint x="330" y="60" as="targetPoint" />
          </mxGeometry>
        </mxCell>
        <mxCell id="pYAscaqakKKFZa-uCSPu-60" value="Sistema gera o faturamento e a Nota Fiscal (NF)" style="rounded=0;whiteSpace=wrap;html=1;" parent="pYAscaqakKKFZa-uCSPu-12" vertex="1">
          <mxGeometry x="860" y="40" width="120" height="60" as="geometry" />
        </mxCell>
        <mxCell id="pYAscaqakKKFZa-uCSPu-62" value="&lt;div&gt;&lt;br&gt;&lt;/div&gt;&lt;div&gt;NF&lt;/div&gt;" style="shape=note;whiteSpace=wrap;html=1;backgroundOutline=1;darkOpacity=0.05;" parent="pYAscaqakKKFZa-uCSPu-12" vertex="1">
          <mxGeometry x="1020" y="60" width="60" height="70" as="geometry" />
        </mxCell>
        <mxCell id="pYAscaqakKKFZa-uCSPu-61" style="edgeStyle=orthogonalEdgeStyle;rounded=0;orthogonalLoop=1;jettySize=auto;html=1;exitX=0.5;exitY=1;exitDx=0;exitDy=0;" parent="pYAscaqakKKFZa-uCSPu-12" source="pYAscaqakKKFZa-uCSPu-60" target="pYAscaqakKKFZa-uCSPu-62" edge="1">
          <mxGeometry relative="1" as="geometry">
            <mxPoint x="1040" y="120" as="targetPoint" />
            <Array as="points">
              <mxPoint x="920" y="120" />
            </Array>
          </mxGeometry>
        </mxCell>
        <mxCell id="pYAscaqakKKFZa-uCSPu-64" value="Gera o pagamento para o prestador de serviço" style="rounded=0;whiteSpace=wrap;html=1;" parent="pYAscaqakKKFZa-uCSPu-12" vertex="1">
          <mxGeometry x="1120" y="35" width="120" height="60" as="geometry" />
        </mxCell>
        <mxCell id="pYAscaqakKKFZa-uCSPu-63" style="edgeStyle=orthogonalEdgeStyle;rounded=0;orthogonalLoop=1;jettySize=auto;html=1;exitX=1;exitY=0;exitDx=0;exitDy=0;" parent="pYAscaqakKKFZa-uCSPu-12" source="pYAscaqakKKFZa-uCSPu-60" target="pYAscaqakKKFZa-uCSPu-64" edge="1">
          <mxGeometry relative="1" as="geometry">
            <mxPoint x="1130" y="60" as="targetPoint" />
            <Array as="points">
              <mxPoint x="980" y="20" />
              <mxPoint x="1080" y="20" />
              <mxPoint x="1080" y="61" />
            </Array>
          </mxGeometry>
        </mxCell>
        <mxCell id="pYAscaqakKKFZa-uCSPu-23" value="Prestador de serviço" style="swimlane;html=1;startSize=20;horizontal=0;" parent="pYAscaqakKKFZa-uCSPu-1" vertex="1">
          <mxGeometry x="20" y="300" width="1460" height="140" as="geometry" />
        </mxCell>
        <mxCell id="pYAscaqakKKFZa-uCSPu-24" value="" style="ellipse;whiteSpace=wrap;html=1;fillColor=#d5e8d4;strokeColor=#82b366;" parent="pYAscaqakKKFZa-uCSPu-23" vertex="1">
          <mxGeometry x="40" y="42" width="40" height="40" as="geometry" />
        </mxCell>
        <mxCell id="pYAscaqakKKFZa-uCSPu-39" value="Marca que chegou na residência" style="rounded=0;whiteSpace=wrap;html=1;" parent="pYAscaqakKKFZa-uCSPu-23" vertex="1">
          <mxGeometry x="120" y="32" width="90" height="60" as="geometry" />
        </mxCell>
        <mxCell id="pYAscaqakKKFZa-uCSPu-36" style="edgeStyle=orthogonalEdgeStyle;rounded=0;orthogonalLoop=1;jettySize=auto;html=1;exitX=1;exitY=0.5;exitDx=0;exitDy=0;" parent="pYAscaqakKKFZa-uCSPu-23" source="pYAscaqakKKFZa-uCSPu-24" target="pYAscaqakKKFZa-uCSPu-39" edge="1">
          <mxGeometry relative="1" as="geometry">
            <mxPoint x="120" y="62" as="targetPoint" />
          </mxGeometry>
        </mxCell>
        <mxCell id="pYAscaqakKKFZa-uCSPu-66" value="Recebe o pagamento" style="rounded=0;whiteSpace=wrap;html=1;" parent="pYAscaqakKKFZa-uCSPu-23" vertex="1">
          <mxGeometry x="1210" y="50" width="120" height="60" as="geometry" />
        </mxCell>
        <mxCell id="pYAscaqakKKFZa-uCSPu-68" value="" style="ellipse;whiteSpace=wrap;html=1;aspect=fixed;fillColor=#f8cecc;strokeColor=#b85450;" parent="pYAscaqakKKFZa-uCSPu-23" vertex="1">
          <mxGeometry x="1370" y="55" width="50" height="50" as="geometry" />
        </mxCell>
        <mxCell id="pYAscaqakKKFZa-uCSPu-67" style="edgeStyle=orthogonalEdgeStyle;rounded=0;orthogonalLoop=1;jettySize=auto;html=1;exitX=1;exitY=0.5;exitDx=0;exitDy=0;" parent="pYAscaqakKKFZa-uCSPu-23" source="pYAscaqakKKFZa-uCSPu-66" target="pYAscaqakKKFZa-uCSPu-68" edge="1">
          <mxGeometry relative="1" as="geometry">
            <mxPoint x="1370" y="80" as="targetPoint" />
          </mxGeometry>
        </mxCell>
        <mxCell id="pYAscaqakKKFZa-uCSPu-40" style="edgeStyle=orthogonalEdgeStyle;rounded=0;orthogonalLoop=1;jettySize=auto;html=1;exitX=1;exitY=0.5;exitDx=0;exitDy=0;dashed=1;" parent="pYAscaqakKKFZa-uCSPu-1" source="pYAscaqakKKFZa-uCSPu-38" target="pYAscaqakKKFZa-uCSPu-41" edge="1">
          <mxGeometry relative="1" as="geometry">
            <mxPoint x="280" y="200" as="targetPoint" />
          </mxGeometry>
        </mxCell>
        <mxCell id="pYAscaqakKKFZa-uCSPu-42" style="edgeStyle=orthogonalEdgeStyle;rounded=0;orthogonalLoop=1;jettySize=auto;html=1;exitX=1;exitY=0.5;exitDx=0;exitDy=0;dashed=1;" parent="pYAscaqakKKFZa-uCSPu-1" source="pYAscaqakKKFZa-uCSPu-39" target="pYAscaqakKKFZa-uCSPu-41" edge="1">
          <mxGeometry relative="1" as="geometry" />
        </mxCell>
        <mxCell id="pYAscaqakKKFZa-uCSPu-45" style="edgeStyle=orthogonalEdgeStyle;rounded=0;orthogonalLoop=1;jettySize=auto;html=1;exitX=1;exitY=0.5;exitDx=0;exitDy=0;dashed=1;" parent="pYAscaqakKKFZa-uCSPu-1" source="pYAscaqakKKFZa-uCSPu-44" target="pYAscaqakKKFZa-uCSPu-47" edge="1">
          <mxGeometry relative="1" as="geometry">
            <mxPoint x="500" y="90" as="targetPoint" />
          </mxGeometry>
        </mxCell>
        <mxCell id="pYAscaqakKKFZa-uCSPu-65" style="edgeStyle=orthogonalEdgeStyle;rounded=0;orthogonalLoop=1;jettySize=auto;html=1;exitX=0.5;exitY=1;exitDx=0;exitDy=0;dashed=1;" parent="pYAscaqakKKFZa-uCSPu-1" source="pYAscaqakKKFZa-uCSPu-64" target="pYAscaqakKKFZa-uCSPu-66" edge="1">
          <mxGeometry relative="1" as="geometry">
            <mxPoint x="1240" y="380" as="targetPoint" />
            <Array as="points">
              <mxPoint x="1200" y="380" />
            </Array>
          </mxGeometry>
        </mxCell>
        <mxCell id="pYAscaqakKKFZa-uCSPu-69" style="edgeStyle=orthogonalEdgeStyle;rounded=0;orthogonalLoop=1;jettySize=auto;html=1;exitX=0.5;exitY=0;exitDx=0;exitDy=0;dashed=1;" parent="pYAscaqakKKFZa-uCSPu-1" source="pYAscaqakKKFZa-uCSPu-60" target="pYAscaqakKKFZa-uCSPu-70" edge="1">
          <mxGeometry relative="1" as="geometry">
            <mxPoint x="940" y="50" as="targetPoint" />
          </mxGeometry>
        </mxCell>
        <mxCell id="pYAscaqakKKFZa-uCSPu-78" style="edgeStyle=orthogonalEdgeStyle;rounded=0;orthogonalLoop=1;jettySize=auto;html=1;exitX=0.5;exitY=1;exitDx=0;exitDy=0;entryX=0;entryY=0.5;entryDx=0;entryDy=0;dashed=1;" parent="pYAscaqakKKFZa-uCSPu-1" source="pYAscaqakKKFZa-uCSPu-76" target="pYAscaqakKKFZa-uCSPu-60" edge="1">
          <mxGeometry relative="1" as="geometry">
            <mxPoint x="820" y="240" as="targetPoint" />
          </mxGeometry>
        </mxCell>
        <mxCell id="pYAscaqakKKFZa-uCSPu-79" value="Sim" style="edgeLabel;html=1;align=center;verticalAlign=middle;resizable=0;points=[];" parent="pYAscaqakKKFZa-uCSPu-78" vertex="1" connectable="0">
          <mxGeometry x="-0.1125" relative="1" as="geometry">
            <mxPoint as="offset" />
          </mxGeometry>
        </mxCell>
      </root>
    </mxGraphModel>
  </diagram>
</mxfile>
